<svg width="25" height="25" viewBox="0 0 25 25" fill="none" xmlns="http://www.w3.org/2000/svg">
    <path fill-rule="evenodd" clip-rule="evenodd" d="M17.8886 1H7.11143C3.35476 1 1 3.6589 1 7.42293V17.5771C1 21.3411 3.34381 24 7.11143 24H17.8886C21.6562 24 24 21.3411 24 17.5771V7.42293C24 3.6589 21.6562 1 17.8886 1Z" stroke="white" stroke-width="0.7" stroke-linecap="round" stroke-linejoin="round"/>
    <path d="M5.05993 13.0423C5.1441 13.2019 5.30414 13.3014 5.4782 13.3014H8.18866V18.7767C8.18866 19.0532 8.40289 19.2775 8.66686 19.2775C8.93083 19.2775 9.14507 19.0532 9.14507 18.7767V13.3014H11.8555C12.0302 13.3014 12.1903 13.2019 12.2738 13.0423C12.3586 12.8827 12.3529 12.6877 12.2604 12.5334L9.07174 7.23373C8.98375 7.08815 8.83136 7 8.66686 7C8.50236 7 8.34997 7.08815 8.26198 7.23373L5.07332 12.5334C5.02487 12.6149 5 12.7077 5 12.8005C5 12.8833 5.0204 12.9668 5.05993 13.0423Z" fill="#FFD600"/>
    <path d="M20.5846 13.2353C20.5005 13.0757 20.3404 12.9762 20.1663 12.9762H17.4559V7.50085C17.4559 7.22438 17.2417 7 16.9777 7C16.7137 7 16.4995 7.22438 16.4995 7.50085V12.9762H13.789C13.6143 12.9762 13.4543 13.0757 13.3708 13.2353C13.286 13.3949 13.2917 13.5899 13.3841 13.7441L16.5728 19.0438C16.6608 19.1894 16.8132 19.2775 16.9777 19.2775C17.1422 19.2775 17.2946 19.1894 17.3826 19.0438L20.5712 13.7441C20.6197 13.6627 20.6445 13.5698 20.6445 13.477C20.6445 13.3942 20.6241 13.3107 20.5846 13.2353Z" fill="#32ABE0"/>
</svg>
