<svg width="17" height="27" viewBox="0 0 17 27" fill="none" xmlns="http://www.w3.org/2000/svg">
    <path d="M9.364 5C9.85845 5 10.3418 4.85338 10.7529 4.57867C11.1641 4.30397 11.4845 3.91352 11.6737 3.45671C11.8629 2.99989 11.9124 2.49723 11.816 2.01228C11.7195 1.52732 11.4814 1.08187 11.1318 0.732234C10.7821 0.382603 10.3367 0.144501 9.85173 0.0480379C9.36678 -0.0484251 8.8641 0.00108321 8.40729 0.190302C7.95047 0.379521 7.56003 0.699953 7.28532 1.11108C7.01062 1.5222 6.864 2.00555 6.864 2.5C6.864 3.16304 7.1274 3.79893 7.59624 4.26777C8.06508 4.73661 8.70096 5 9.364 5ZM4.68201 9.245L1.248 26.845H3.87L6.05499 16.857L8.739 19.357V26.848H11.239V17.423L8.679 14.863L9.42799 11.117C10.2462 12.1325 11.282 12.9514 12.4589 13.5132C13.6358 14.075 14.9239 14.3654 16.228 14.363V11.863C15.1371 11.8583 14.0655 11.5747 13.1149 11.0394C12.1644 10.504 11.3665 9.7345 10.797 8.804L9.61099 6.804C9.39211 6.43759 9.08077 6.13516 8.70816 5.927C8.33555 5.71885 7.91478 5.61229 7.48801 5.618C7.16689 5.61964 6.8491 5.68313 6.552 5.805L0 8.496V14.364H2.5V10.182L4.685 9.246" fill="black"/>
</svg>
