<svg width="44" height="44" viewBox="0 0 44 44" fill="none" xmlns="http://www.w3.org/2000/svg">
    <path d="M44 22C44 9.84974 34.1503 0 22 0C9.84974 0 0 9.84974 0 22C0 34.1503 9.84974 44 22 44C34.1503 44 44 34.1503 44 22Z" fill="#EDEEF2"/>
    <path d="M44 22C44 9.84974 34.1503 0 22 0C9.84974 0 0 9.84974 0 22C0 34.1503 9.84974 44 22 44C34.1503 44 44 34.1503 44 22Z" fill="white"/>
    <path d="M29.6201 24.8541C28.5239 24.856 27.4344 24.6825 26.3931 24.3401C26.1486 24.2608 25.8877 24.2468 25.6362 24.2994C25.3847 24.3521 25.1513 24.4695 24.9591 24.6401L22.9241 26.1761C20.7337 25.086 18.9586 23.3112 17.8681 21.1211L19.3591 19.1391C19.5496 18.949 19.6839 18.7102 19.7475 18.4487C19.811 18.1872 19.8011 17.9133 19.7191 17.6571C19.3757 16.6142 19.2015 15.523 19.2031 14.4251C19.2017 14.0407 19.0483 13.6724 18.7762 13.4009C18.5041 13.1293 18.1355 12.9766 17.7511 12.9761H14.4281C14.0431 12.9766 13.6741 13.1298 13.4019 13.4019C13.1298 13.6741 12.9766 14.0431 12.9761 14.4281C12.98 18.8415 14.7348 23.0731 17.8551 26.1942C20.9755 29.3153 25.2067 31.071 29.6201 31.0761C29.8113 31.0763 30.0008 31.0389 30.1776 30.9658C30.3543 30.8927 30.515 30.7855 30.6502 30.6502C30.7855 30.515 30.8927 30.3543 30.9658 30.1776C31.0389 30.0008 31.0763 29.8113 31.0761 29.6201V26.3061C31.0758 26.1151 31.0379 25.9261 30.9646 25.7498C30.8913 25.5735 30.784 25.4134 30.6488 25.2785C30.5136 25.1437 30.3532 25.0368 30.1767 24.964C30.0001 24.8912 29.811 24.8538 29.6201 24.8541Z" fill="#32ABE0"/>
</svg>
