<svg width="24" height="24" viewBox="0 0 24 24" fill="none" xmlns="http://www.w3.org/2000/svg">
    <g clip-path="url(#clip0_73_1051)">
        <path d="M7 19.0268C2 20.5268 2 16.5268 0 16.0268M14 22.0268V18.1568C14.0375 17.68 13.9731 17.2006 13.811 16.7506C13.6489 16.3006 13.3929 15.8902 13.06 15.5468C16.2 15.1968 19.5 14.0068 19.5 8.54679C19.4997 7.15062 18.9627 5.80799 18 4.79679C18.4559 3.5753 18.4236 2.22514 17.91 1.02679C17.91 1.02679 16.73 0.676793 14 2.50679C11.708 1.88561 9.29199 1.88561 7 2.50679C4.27 0.676793 3.09 1.02679 3.09 1.02679C2.57638 2.22514 2.54414 3.5753 3 4.79679C2.03013 5.81549 1.49252 7.17026 1.5 8.57679C1.5 13.9968 4.8 15.1868 7.94 15.5768C7.611 15.9168 7.35726 16.3222 7.19531 16.7667C7.03335 17.2112 6.96681 17.6849 7 18.1568V22.0268" stroke="white" stroke-linecap="round" stroke-linejoin="round"/>
    </g>
    <defs>
        <clipPath id="clip0_73_1051">
            <rect width="24" height="24" fill="white"/>
        </clipPath>
    </defs>
</svg>
