<svg width="24" height="24" viewBox="0 0 24 24" fill="none" xmlns="http://www.w3.org/2000/svg">
    <path fill-rule="evenodd" clip-rule="evenodd" d="M9.87503 4.31938C11.9078 3.14577 14.507 3.84224 15.6806 5.87498C15.8877 6.2337 16.3464 6.35661 16.7052 6.1495C17.0639 5.9424 17.1868 5.4837 16.9797 5.12498C15.3919 2.3748 11.8752 1.43252 9.12503 3.02034C6.37485 4.60816 5.43257 8.1248 7.02038 10.875C7.1076 11.026 7.20074 11.1718 7.29936 11.3121C7.26677 11.5367 7.24989 11.7664 7.24989 12.0001C7.24989 14.4734 9.14013 16.5051 11.5547 16.7295C10.2967 18.4842 7.88686 19.0315 5.97621 17.9284C3.94199 16.754 3.24504 14.154 4.41847 12.1216C4.62557 11.7629 4.50267 11.3042 4.14395 11.0971C3.78523 10.8899 3.32654 11.0129 3.11943 11.3716C1.53144 14.1221 2.47515 17.6391 5.22621 19.2275C7.97727 20.8158 11.495 19.8745 13.083 17.124C13.1918 16.9357 13.2887 16.7434 13.3741 16.5483C15.3274 15.9589 16.7499 14.1456 16.7499 12.0001C16.7499 11.2937 16.5957 10.6232 16.319 10.0206C18.4677 10.2329 20.1463 12.0456 20.1463 14.2507C20.1463 16.5985 18.2434 18.5015 15.8963 18.5015C15.482 18.5015 15.1463 18.8373 15.1463 19.2515C15.1463 19.6657 15.482 20.0015 15.8963 20.0015C19.072 20.0015 21.6463 17.4266 21.6463 14.2507C21.6463 11.0747 19.072 8.49985 15.8963 8.49985C15.6779 8.49985 15.4622 8.51206 15.2497 8.53587C14.4001 7.7385 13.257 7.25013 11.9999 7.25013C10.3203 7.25013 8.84437 8.12184 7.99976 9.43752C7.31488 7.53861 8.06549 5.36411 9.87503 4.31938ZM8.74989 12.0001C8.74989 10.2052 10.205 8.75013 11.9999 8.75013C13.7948 8.75013 15.2499 10.2052 15.2499 12.0001C15.2499 13.7951 13.7948 15.2501 11.9999 15.2501C10.205 15.2501 8.74989 13.7951 8.74989 12.0001Z" fill="white"/>
</svg>
