<svg width="23" height="19" viewBox="0 0 23 19" fill="none" xmlns="http://www.w3.org/2000/svg">
    <path d="M5 12.849C5.10015 12.8487 5.19915 12.8275 5.2906 12.7867C5.38206 12.7459 5.46395 12.6864 5.531 12.612C5.985 12.1 9.993 7.56096 9.993 4.99996C9.9446 3.70717 9.39701 2.48346 8.46527 1.58595C7.53354 0.688445 6.2902 0.187012 4.9965 0.187012C3.7028 0.187012 2.45946 0.688445 1.52773 1.58595C0.595993 2.48346 0.0483972 3.70717 0 4.99996C0 7.56396 4.009 12.105 4.466 12.615C4.53366 12.6892 4.61615 12.7484 4.70814 12.7887C4.80013 12.829 4.89957 12.8495 5 12.849ZM5 1.42796C5.94623 1.42982 6.85309 1.80693 7.52162 2.47659C8.19014 3.14624 8.56574 4.05373 8.566 4.99996C8.566 6.36096 6.556 9.19996 4.997 11.049C3.438 9.19996 1.428 6.35896 1.428 4.99996C1.42827 4.05269 1.80468 3.14429 2.47451 2.47447C3.14433 1.80465 4.05273 1.42823 5 1.42796Z" fill="#B6B6B6"/>
    <path d="M7.13796 4.99598C7.13796 4.57253 7.0124 4.15859 6.77714 3.80651C6.54188 3.45442 6.2075 3.18 5.81629 3.01795C5.42507 2.85591 4.99459 2.81351 4.57927 2.89612C4.16396 2.97873 3.78247 3.18264 3.48304 3.48207C3.18362 3.78149 2.97971 4.16298 2.8971 4.5783C2.81449 4.99361 2.85688 5.42409 3.01893 5.81531C3.18098 6.20653 3.4554 6.5409 3.80748 6.77616C4.15957 7.01141 4.57351 7.13698 4.99696 7.13698C5.56454 7.13619 6.10865 6.91036 6.51 6.50902C6.91134 6.10768 7.13716 5.56357 7.13796 4.99598ZM4.28296 4.99598C4.28296 4.85477 4.32484 4.71672 4.40329 4.59931C4.48175 4.48189 4.59326 4.39038 4.72373 4.33634C4.85419 4.2823 4.99775 4.26815 5.13626 4.2957C5.27476 4.32325 5.40198 4.39125 5.50183 4.49111C5.60169 4.59096 5.66969 4.71819 5.69724 4.85669C5.72479 4.99519 5.71065 5.13875 5.65661 5.26922C5.60257 5.39969 5.51105 5.5112 5.39363 5.58966C5.27622 5.66811 5.13817 5.70999 4.99696 5.70999C4.80767 5.70972 4.62622 5.63441 4.49238 5.50057C4.35854 5.36672 4.28323 5.18527 4.28296 4.99598Z" fill="#B6B6B6"/>
    <path d="M17.8491 0C16.523 0 15.2513 0.526784 14.3136 1.46447C13.3759 2.40215 12.8491 3.67392 12.8491 5C12.8491 7.564 16.8581 12.105 17.3151 12.615C17.3821 12.6895 17.464 12.7491 17.5555 12.7898C17.6469 12.8306 17.746 12.8517 17.8461 12.8517C17.9463 12.8517 18.0453 12.8306 18.1368 12.7898C18.2283 12.7491 18.3102 12.6895 18.3771 12.615C18.8341 12.105 22.8431 7.564 22.8431 5C22.8431 3.67496 22.3172 2.4041 21.3808 1.46659C20.4444 0.529077 19.1742 0.00159005 17.8491 0ZM17.8491 11.046C16.2901 9.197 14.2801 6.359 14.2801 4.997C14.2801 4.05044 14.6562 3.14265 15.3255 2.47334C15.9948 1.80402 16.9026 1.428 17.8491 1.428C18.7957 1.428 19.7035 1.80402 20.3728 2.47334C21.0421 3.14265 21.4181 4.05044 21.4181 4.997C21.4151 6.357 19.4051 9.2 17.8491 11.046Z" fill="#B6B6B6"/>
    <path d="M17.8451 2.85498C17.4216 2.85498 17.0077 2.98055 16.6556 3.21581C16.3036 3.45106 16.0291 3.78544 15.8671 4.17666C15.705 4.56788 15.6626 4.99835 15.7452 5.41367C15.8279 5.82898 16.0318 6.21047 16.3312 6.5099C16.6306 6.80932 17.0121 7.01323 17.4274 7.09584C17.8427 7.17845 18.2732 7.13605 18.6644 6.97401C19.0556 6.81196 19.39 6.53754 19.6253 6.18546C19.8605 5.83337 19.9861 5.41943 19.9861 4.99598C19.9853 4.42839 19.7595 3.88428 19.3582 3.48294C18.9568 3.0816 18.4127 2.85577 17.8451 2.85498ZM17.8451 5.70998C17.7039 5.70998 17.5658 5.66811 17.4484 5.58965C17.331 5.5112 17.2395 5.39968 17.1855 5.26922C17.1314 5.13875 17.1173 4.99519 17.1448 4.85669C17.1724 4.71819 17.2404 4.59096 17.3402 4.4911C17.4401 4.39125 17.5673 4.32325 17.7058 4.2957C17.8443 4.26815 17.9879 4.28229 18.1184 4.33633C18.2488 4.39038 18.3603 4.48189 18.4388 4.5993C18.5172 4.71672 18.5591 4.85476 18.5591 4.99598C18.5589 5.18526 18.4835 5.36672 18.3497 5.50056C18.2158 5.63441 18.0344 5.70972 17.8451 5.70998Z" fill="#B6B6B6"/>
    <path d="M4.99611 14.2759C4.60326 14.2743 4.21756 14.3809 3.88123 14.5839C3.5449 14.787 3.27091 15.0786 3.08927 15.427C2.90763 15.7753 2.82534 16.1669 2.8514 16.5589C2.87746 16.9509 3.01087 17.3282 3.23702 17.6494C3.46318 17.9706 3.77336 18.2234 4.13361 18.3801C4.49385 18.5369 4.89027 18.5914 5.27946 18.5379C5.66865 18.4843 6.03561 18.3248 6.34016 18.0766C6.6447 17.8284 6.8751 17.5013 7.00611 17.1309H15.8351C16.0035 17.607 16.3348 18.0083 16.7705 18.2637C17.2061 18.5192 17.718 18.6125 18.2158 18.527C18.7135 18.4416 19.165 18.183 19.4905 17.7968C19.816 17.4107 19.9945 16.9219 19.9945 16.4169C19.9945 15.9119 19.816 15.4231 19.4905 15.037C19.165 14.6508 18.7135 14.3922 18.2158 14.3067C17.718 14.2213 17.2061 14.3146 16.7705 14.5701C16.3348 14.8255 16.0035 15.2268 15.8351 15.7029H7.00711C6.86028 15.2865 6.58815 14.9258 6.22807 14.6703C5.86799 14.4148 5.43763 14.277 4.99611 14.2759ZM4.99611 17.1309C4.85489 17.1309 4.71685 17.089 4.59944 17.0106C4.48202 16.9321 4.39051 16.8206 4.33647 16.6901C4.28242 16.5597 4.26828 16.4161 4.29583 16.2776C4.32338 16.1391 4.39138 16.0119 4.49124 15.912C4.59109 15.8122 4.71832 15.7441 4.85682 15.7166C4.99532 15.689 5.13888 15.7032 5.26935 15.7572C5.39982 15.8113 5.51133 15.9028 5.58978 16.0202C5.66824 16.1376 5.71012 16.2757 5.71012 16.4169C5.70985 16.6062 5.63454 16.7876 5.5007 16.9215C5.36685 17.0553 5.18539 17.1306 4.99611 17.1309ZM17.8451 15.7029C17.9863 15.7029 18.1244 15.7448 18.2418 15.8232C18.3592 15.9017 18.4507 16.0132 18.5048 16.1437C18.5588 16.2741 18.5729 16.4177 18.5454 16.5562C18.5178 16.6947 18.4498 16.8219 18.35 16.9218C18.2501 17.0216 18.1229 17.0896 17.9844 17.1172C17.8459 17.1447 17.7023 17.1306 17.5719 17.0766C17.4414 17.0225 17.3299 16.931 17.2514 16.8136C17.173 16.6962 17.1311 16.5581 17.1311 16.4169C17.1316 16.2278 17.2071 16.0466 17.3409 15.9129C17.4747 15.7793 17.656 15.7042 17.8451 15.7039V15.7029Z" fill="#B6B6B6"/>
</svg>
