<svg width="24" height="24" viewBox="0 0 24 24" fill="none" xmlns="http://www.w3.org/2000/svg">
    <path fill-rule="evenodd" clip-rule="evenodd" d="M6.24766 6L17.7523 6C20.6505 6 21.5 6.84951 21.5 9.74766V17.2523C21.5 20.1505 20.6505 21 17.7523 21H6.24766C3.34951 21 2.5 20.1505 2.5 17.2523V9.74766C2.5 6.84951 3.34951 6 6.24766 6Z" stroke="white" stroke-width="1.5" stroke-linecap="round" stroke-linejoin="round"/>
    <path fill-rule="evenodd" clip-rule="evenodd" d="M12.5215 13.0415C13.0737 13.0415 13.5215 13.4892 13.5215 14.0415V16.0415C13.5215 16.5938 13.0737 17.0415 12.5215 17.0415H11.5168C10.9646 17.0415 10.5168 16.5938 10.5168 16.0415V14.0415C10.5168 13.4892 10.9646 13.0415 11.5168 13.0415H12.5215Z" stroke="white" stroke-width="1.5" stroke-linecap="round" stroke-linejoin="round"/>
    <path d="M16.0232 5.99998C16.0232 5.08545 16.0232 3.7261 16.0232 3.7261C16.0232 3.7261 15.8623 2.83574 15.5232 2.49998C15.1841 2.16421 14.2799 1.99998 14.2799 1.99998H9.72048C9.72048 1.99998 9.02682 1.95524 8.49189 2.49998C7.95696 3.04472 7.99189 3.76028 7.99189 3.76028C7.99189 3.76028 7.99189 5.46969 7.99189 5.99998" stroke="white" stroke-width="1.5" stroke-linecap="round" stroke-linejoin="round"/>
    <path d="M14.021 14.2546C16.3543 14.0889 21.521 13 21.521 13" stroke="white" stroke-width="1.5"/>
    <path d="M2.5 13C2.5 13 7.75363 14.0931 10 14.2571" stroke="white" stroke-width="1.5"/>
</svg>
