<svg width="20" height="20" viewBox="0 0 20 20" fill="none" xmlns="http://www.w3.org/2000/svg">
    <g clip-path="url(#clip0_22_11361)">
        <path d="M14.5746 13.2889L19.7336 18.4444C19.8172 18.5237 19.8842 18.6223 19.9302 18.7332C19.9762 18.8442 20 18.965 20 19.0872C20 19.2095 19.9762 19.3302 19.9302 19.4412C19.8842 19.5522 19.8172 19.6507 19.7336 19.73C19.5549 19.9017 19.3268 19.9961 19.0909 19.9961C18.8549 19.9961 18.6268 19.9017 18.4481 19.73L13.289 14.5711C11.7963 15.7476 10.0102 16.3732 8.18183 16.36C3.66303 16.36 0.00390625 12.6933 0.00390625 8.17778C0.00390625 3.66222 3.66303 0 8.17784 0C12.6926 0 16.3558 3.66667 16.3558 8.18222C16.3475 10.0739 15.7101 11.8949 14.5666 13.2933L14.5746 13.2889ZM8.17784 14.5456C11.6923 14.5456 14.5417 11.6967 14.5417 8.18222C14.5417 4.66778 11.6963 1.81778 8.17784 1.81778C4.65934 1.81778 1.81801 4.66667 1.81801 8.18222C1.81801 11.6978 4.66731 14.5456 8.17784 14.5456Z" fill="#4298F0"/>
    </g>
    <defs>
        <clipPath id="clip0_22_11361">
            <rect width="20" height="20" fill="white"/>
        </clipPath>
    </defs>
</svg>
