<svg width="44" height="44" viewBox="0 0 44 44" fill="none" xmlns="http://www.w3.org/2000/svg">
    <path d="M44 22C44 9.84974 34.1503 0 22 0C9.84974 0 0 9.84974 0 22C0 34.1503 9.84974 44 22 44C34.1503 44 44 34.1503 44 22Z" fill="white"/>
    <path d="M30.5809 29.5519C32.085 27.811 32.8451 25.5489 32.6976 23.253C32.55 20.957 31.5065 18.8109 29.7919 17.2769C30.2144 18.7679 30.2857 20.3366 30.0002 21.8599C29.7148 23.3832 29.0803 24.8196 28.1466 26.0565C27.2129 27.2935 26.0053 28.2973 24.6186 28.9893C23.2319 29.6812 21.7037 30.0425 20.1539 30.0449L17.7539 30.0309C18.5666 30.8426 19.5314 31.4861 20.593 31.9247C21.6546 32.3633 22.7923 32.5883 23.9409 32.5869L32.0899 32.5449C32.2134 32.5438 32.3339 32.5063 32.4361 32.4369C32.5383 32.3676 32.6177 32.2695 32.6644 32.1551C32.711 32.0407 32.7227 31.9151 32.6981 31.794C32.6734 31.673 32.6135 31.5619 32.5259 31.4749L30.5809 29.5519Z" fill="#32ABE0"/>
    <path d="M20.1539 28.7949C22.1555 28.7947 24.0968 28.1097 25.6554 26.8539C27.214 25.598 28.2961 23.8467 28.722 21.8909C29.1479 19.9352 28.892 17.8926 27.9967 16.1023C27.1014 14.3121 25.6207 12.8819 23.8004 12.0494C21.9802 11.2169 19.9299 11.0321 17.9901 11.5257C16.0503 12.0194 14.3377 13.1617 13.1367 14.763C11.9358 16.3643 11.3188 18.3282 11.3881 20.3286C11.4574 22.3291 12.2089 24.2456 13.5179 25.7599L11.5689 27.6839C11.4812 27.771 11.4213 27.882 11.3967 28.0031C11.3721 28.1241 11.3838 28.2497 11.4304 28.3641C11.477 28.4785 11.5564 28.5766 11.6587 28.6459C11.7609 28.7153 11.8813 28.7529 12.0049 28.7539L20.1539 28.7959V28.7949ZM16.4249 16.9189H23.9249C24.0906 16.9189 24.2496 16.9847 24.3668 17.1019C24.484 17.2192 24.5499 17.3781 24.5499 17.5439C24.5499 17.7097 24.484 17.8686 24.3668 17.9858C24.2496 18.1031 24.0906 18.1689 23.9249 18.1689H16.4249C16.2591 18.1689 16.1001 18.1031 15.9829 17.9858C15.8657 17.8686 15.7999 17.7097 15.7999 17.5439C15.7999 17.3781 15.8657 17.2192 15.9829 17.1019C16.1001 16.9847 16.2591 16.9189 16.4249 16.9189ZM16.4249 19.4189H23.9249C24.0906 19.4189 24.2496 19.4847 24.3668 19.6019C24.484 19.7192 24.5499 19.8781 24.5499 20.0439C24.5499 20.2097 24.484 20.3686 24.3668 20.4858C24.2496 20.6031 24.0906 20.6689 23.9249 20.6689H16.4249C16.2591 20.6689 16.1001 20.6031 15.9829 20.4858C15.8657 20.3686 15.7999 20.2097 15.7999 20.0439C15.7999 19.8781 15.8657 19.7192 15.9829 19.6019C16.1001 19.4847 16.2591 19.4189 16.4249 19.4189ZM15.7999 22.5439C15.7999 22.3781 15.8657 22.2192 15.9829 22.1019C16.1001 21.9847 16.2591 21.9189 16.4249 21.9189H23.9249C24.0906 21.9189 24.2496 21.9847 24.3668 22.1019C24.484 22.2192 24.5499 22.3781 24.5499 22.5439C24.5499 22.7097 24.484 22.8686 24.3668 22.9858C24.2496 23.1031 24.0906 23.1689 23.9249 23.1689H16.4249C16.2591 23.1689 16.1001 23.1031 15.9829 22.9858C15.8657 22.8686 15.7999 22.7097 15.7999 22.5439Z" fill="#32ABE0"/>
</svg>
