<svg width="18" height="18" viewBox="0 0 18 18" fill="none" xmlns="http://www.w3.org/2000/svg">
    <path d="M16.106 4.73769C15.9275 4.82441 15.7906 4.97837 15.7254 5.16581C15.6602 5.35324 15.6719 5.55888 15.758 5.73769C16.2506 6.75502 16.5044 7.8714 16.5 9.0017C16.5 10.4851 16.0601 11.9351 15.236 13.1685C14.4119 14.4018 13.2406 15.3631 11.8701 15.9308C10.4997 16.4984 8.99169 16.647 7.53683 16.3576C6.08197 16.0682 4.7456 15.3539 3.69671 14.305C2.64782 13.2561 1.93351 11.9197 1.64412 10.4649C1.35473 9.01002 1.50325 7.50201 2.07091 6.13157C2.63857 4.76112 3.59986 3.58979 4.83323 2.76567C6.0666 1.94156 7.51665 1.5017 9.00001 1.5017C10.6912 1.49391 12.3341 2.06484 13.656 3.11969C13.7328 3.18371 13.8216 3.23173 13.9172 3.26093C14.0128 3.29013 14.1133 3.29992 14.2128 3.28972C14.3122 3.27953 14.4086 3.24955 14.4963 3.20156C14.584 3.15357 14.6612 3.08852 14.7234 3.01026C14.7856 2.93199 14.8315 2.84208 14.8585 2.74581C14.8854 2.64954 14.8929 2.54886 14.8804 2.44968C14.8678 2.3505 14.8356 2.25481 14.7856 2.16826C14.7355 2.08171 14.6687 2.00605 14.589 1.9457C12.9919 0.680359 11.0127 -0.00558805 8.97518 3.4289e-05C6.9376 0.00565663 4.96223 0.70251 3.37216 1.97664C1.78209 3.25078 0.67143 5.02677 0.221834 7.01413C-0.227762 9.00149 0.0103241 11.0826 0.897142 12.9171C1.78396 14.7515 3.26702 16.2308 5.10377 17.1129C6.94052 17.995 9.02223 18.2277 11.0084 17.773C12.9946 17.3183 14.7677 16.2031 16.0378 14.6098C17.3078 13.0164 17.9996 11.0393 18 9.0017C18.0045 7.64582 17.6994 6.30681 17.108 5.0867C17.0215 4.908 16.8676 4.77096 16.68 4.70571C16.4925 4.64045 16.2868 4.65232 16.108 4.7387L16.106 4.73769Z" fill="#B6B6B6"/>
    <path d="M9 3.00146C8.80109 3.00146 8.61032 3.08048 8.46967 3.22113C8.32901 3.36178 8.25 3.55255 8.25 3.75146V9.00146C8.25 9.20038 8.32901 9.39115 8.46967 9.5318C8.61032 9.67245 8.80109 9.75146 9 9.75146H12.75C12.9489 9.75146 13.1397 9.67245 13.2803 9.5318C13.421 9.39115 13.5 9.20038 13.5 9.00146C13.5 8.80255 13.421 8.61178 13.2803 8.47113C13.1397 8.33048 12.9489 8.25146 12.75 8.25146H9.75V3.75146C9.75 3.55255 9.67099 3.36178 9.53033 3.22113C9.38968 3.08048 9.19891 3.00146 9 3.00146Z" fill="#B6B6B6"/>
</svg>
