<svg width="21" height="19" viewBox="0 0 21 19" fill="none" xmlns="http://www.w3.org/2000/svg">
    <path d="M18.486 2.554C18.4312 1.85931 18.1168 1.21073 17.6053 0.737442C17.0938 0.264149 16.4229 0.000858427 15.726 0H2.769C2.03486 0.000794096 1.33101 0.292789 0.811897 0.811905C0.292781 1.33102 0.000794096 2.03486 0 2.769V15.582C0.000794096 16.3161 0.292781 17.02 0.811897 17.5391C1.33101 18.0582 2.03486 18.3502 2.769 18.351H17.737C18.4711 18.3502 19.175 18.0582 19.6941 17.5391C20.2132 17.02 20.5052 16.3161 20.506 15.582V5.21899C20.5052 4.61522 20.3074 4.02821 19.9426 3.54706C19.5779 3.06591 19.0661 2.71689 18.485 2.55299L18.486 2.554ZM2.769 1.29401H15.726C16.0616 1.29457 16.387 1.40933 16.6488 1.61943C16.9105 1.82953 17.0929 2.12245 17.166 2.45H2.766C2.24377 2.44944 1.73217 2.59755 1.291 2.877V2.769C1.29153 2.37797 1.4471 2.00311 1.7236 1.72661C2.0001 1.45011 2.37497 1.29454 2.766 1.29401H2.769ZM17.737 17.058H2.769C2.37797 17.0575 2.0031 16.9019 1.7266 16.6254C1.4501 16.3489 1.29453 15.974 1.294 15.583V5.21899C1.29426 4.82779 1.44972 4.45267 1.72625 4.17595C2.00278 3.89923 2.37779 3.74353 2.769 3.743H17.737C18.1284 3.74326 18.5036 3.89885 18.7804 4.1756C19.0571 4.45234 19.2127 4.82762 19.213 5.21899V7.476H15.088C14.3018 7.476 13.5477 7.78833 12.9918 8.34428C12.4358 8.90024 12.1235 9.65427 12.1235 10.4405C12.1235 11.2267 12.4358 11.9808 12.9918 12.5367C13.5477 13.0927 14.3018 13.405 15.088 13.405H19.213V15.582C19.2125 15.973 19.0569 16.3479 18.7804 16.6244C18.5039 16.9009 18.129 17.0565 17.738 17.057L17.737 17.058ZM19.212 12.112H15.087C14.651 12.1013 14.2365 11.9207 13.9319 11.6085C13.6274 11.2964 13.4569 10.8776 13.4569 10.4415C13.4569 10.0054 13.6274 9.58658 13.9319 9.27446C14.2365 8.96234 14.651 8.78166 15.087 8.771H19.212V12.112Z" fill="#B6B6B6"/>
</svg>
