<svg width="25" height="17" viewBox="0 0 25 17" fill="none" xmlns="http://www.w3.org/2000/svg">
    <path d="M22.1 0H2.57C1.88924 0.00105539 1.23661 0.271747 0.754961 0.752838C0.273307 1.23393 0.00185052 1.88624 0 2.567L0 13.879C0.00105789 14.5603 0.272165 15.2134 0.753904 15.6951C1.23564 16.1768 1.88872 16.4479 2.57 16.449H22.1C22.7813 16.4479 23.4344 16.1768 23.9161 15.6951C24.3978 15.2134 24.6689 14.5603 24.67 13.879V2.567C24.6681 1.88624 24.3967 1.23393 23.915 0.752838C23.4334 0.271747 22.7808 0.00105539 22.1 0ZM23.642 13.879C23.6415 14.2878 23.4788 14.6797 23.1898 14.9688C22.9007 15.2578 22.5088 15.4205 22.1 15.421H2.57C2.1612 15.4205 1.76929 15.2578 1.48023 14.9688C1.19116 14.6797 1.02853 14.2878 1.028 13.879V2.567C1.02932 2.15872 1.1923 1.76758 1.48128 1.47916C1.77026 1.19075 2.16172 1.02853 2.57 1.028H22.1C22.509 1.02747 22.9015 1.18922 23.1913 1.47775C23.4811 1.76629 23.6447 2.15803 23.646 2.567V13.879H23.642Z" fill="#292929"/>
    <path d="M24.16 3.084H0.514C0.377679 3.084 0.246941 3.13816 0.150547 3.23456C0.0541534 3.33095 0 3.46169 0 3.59801L0 6.68201C0 6.81833 0.0541534 6.94906 0.150547 7.04546C0.246941 7.14185 0.377679 7.19601 0.514 7.19601H24.16C24.2963 7.19601 24.4271 7.14185 24.5235 7.04546C24.6198 6.94906 24.674 6.81833 24.674 6.68201V3.59801C24.674 3.46169 24.6198 3.33095 24.5235 3.23456C24.4271 3.13816 24.2963 3.084 24.16 3.084ZM23.646 6.16801H1.028V4.112H23.646V6.16801Z" fill="#292929"/>
    <path d="M9.76698 10.2812H3.59798C3.46166 10.2812 3.33093 10.3354 3.23454 10.4318C3.13814 10.5282 3.08398 10.6589 3.08398 10.7952C3.08398 10.9316 3.13814 11.0623 3.23454 11.1587C3.33093 11.2551 3.46166 11.3092 3.59798 11.3092H9.76698C9.9033 11.3092 10.034 11.2551 10.1304 11.1587C10.2268 11.0623 10.281 10.9316 10.281 10.7952C10.281 10.6589 10.2268 10.5282 10.1304 10.4318C10.034 10.3354 9.9033 10.2812 9.76698 10.2812Z" fill="#292929"/>
    <path d="M9.76698 12.337H3.59798C3.46166 12.337 3.33093 12.3912 3.23454 12.4876C3.13814 12.584 3.08398 12.7147 3.08398 12.851C3.08398 12.9873 3.13814 13.1181 3.23454 13.2145C3.33093 13.3109 3.46166 13.365 3.59798 13.365H9.76698C9.9033 13.365 10.034 13.3109 10.1304 13.2145C10.2268 13.1181 10.281 12.9873 10.281 12.851C10.281 12.7147 10.2268 12.584 10.1304 12.4876C10.034 12.3912 9.9033 12.337 9.76698 12.337Z" fill="#292929"/>
    <path d="M20.048 9.25301H19.02C18.6112 9.25354 18.2193 9.41615 17.9302 9.70522C17.6412 9.99428 17.4785 10.3862 17.478 10.795V11.82C17.4785 12.2288 17.6412 12.6207 17.9302 12.9098C18.2193 13.1988 18.6112 13.3615 19.02 13.362H20.048C20.4568 13.3615 20.8487 13.1988 21.1378 12.9098C21.4269 12.6207 21.5895 12.2288 21.59 11.82V10.792C21.5887 10.3837 21.4257 9.99257 21.1367 9.70415C20.8477 9.41573 20.4563 9.25353 20.048 9.25301ZM20.562 11.823C20.562 11.9593 20.5079 12.0901 20.4115 12.1864C20.3151 12.2828 20.1843 12.337 20.048 12.337H19.02C18.8837 12.337 18.7529 12.2828 18.6566 12.1864C18.5602 12.0901 18.506 11.9593 18.506 11.823V10.795C18.506 10.6587 18.5602 10.5279 18.6566 10.4315C18.7529 10.3351 18.8837 10.281 19.02 10.281H20.048C20.1843 10.281 20.3151 10.3351 20.4115 10.4315C20.5079 10.5279 20.562 10.6587 20.562 10.795V11.823Z" fill="#292929"/>
</svg>
