<svg width="24" height="24" viewBox="0 0 24 24" fill="none" xmlns="http://www.w3.org/2000/svg">
<circle cx="12" cy="7.27803" r="4.77803" stroke="white" stroke-width="1.5" stroke-linecap="round" stroke-linejoin="round"/>
<path fill-rule="evenodd" clip-rule="evenodd" d="M12 14C15.4558 14 18.3998 15.3695 19.5185 17.2875C19.6023 17.3932 19.675 17.505 19.7368 17.6228C19.928 18.001 20.015 18.4185 19.9979 18.8325L19.9852 19.0006C19.9534 19.2892 19.8707 19.5733 19.7368 19.8381C19.2956 20.6783 18.3374 21.2488 16.7747 21.5644L16.4926 21.6174C15.7216 21.7729 14.9412 21.874 14.1568 21.9199C13.5754 21.984 12.9941 21.9968 12.4083 21.9994L10.6444 22C10.3675 21.9644 10.0994 21.9466 9.83981 21.9466C9.05538 21.9063 8.27477 21.8082 7.50397 21.653C5.83428 21.3327 4.74422 20.7633 4.27705 19.8737C4.13502 19.6022 4.04588 19.3058 4.01366 19.0009L4.004 18.84L4.0001 18.7527C3.99706 18.4245 4.06059 18.1001 4.18586 17.7999L4.2684 17.6228C4.32235 17.5181 4.38503 17.4177 4.4564 17.3216L4.47802 17.2935C5.59402 15.3724 8.54058 14 12 14Z" stroke="white" stroke-width="1.5" stroke-linecap="round" stroke-linejoin="round"/>
</svg>